HIERARCHY
ROOT Hips
{
	OFFSET 0.000000 0.000000 0.000000
	CHANNELS 6 Xposition Yposition Zposition Zrotation Yrotation Xrotation 
	JOINT LeftUpLeg_virtual
	{
		OFFSET 0.000000 0.000000 0.000000
		CHANNELS 3 Zrotation Yrotation Xrotation
		JOINT LeftUpLeg
		{
			OFFSET 10.205400 -3.823500 0.155100
			CHANNELS 3 Zrotation Yrotation Xrotation
			JOINT LeftLeg
			{
				OFFSET 0.708757 -12.982077 0.567790
				CHANNELS 3 Zrotation Yrotation Xrotation
				JOINT LeftFoot
				{
					OFFSET -0.708756 -10.717838 -2.184338
					CHANNELS 3 Zrotation Yrotation Xrotation
					JOINT LeftToeBase
					{
						OFFSET 0.108149 -7.191104 7.560241
						CHANNELS 3 Zrotation Yrotation Xrotation
						End Site
						{
							OFFSET 0.000000 0.000000 0.000000
						}
					}
				}
			}
		}
	}
	JOINT RightUpLeg_virtual
	{
		OFFSET 0.000000 0.000000 0.000000
		CHANNELS 3 Zrotation Yrotation Xrotation
		JOINT RightUpLeg
		{
			OFFSET -10.205400 -3.823500 0.005500
			CHANNELS 3 Zrotation Yrotation Xrotation
			JOINT RightLeg
			{
				OFFSET -0.708756 -12.982134 0.610632
				CHANNELS 3 Zrotation Yrotation Xrotation
				JOINT RightFoot
				{
					OFFSET 0.708754 -10.717769 -1.945823
					CHANNELS 3 Zrotation Yrotation Xrotation
					JOINT RightToeBase
					{
						OFFSET -0.108140 -7.191069 7.372968
						CHANNELS 3 Zrotation Yrotation Xrotation
						End Site
						{
							OFFSET 0.000000 0.000000 0.000000
						}
					}
				}
			}
		}
	}
	JOINT Spine_virtual
	{
		OFFSET 0.000000 0.000000 0.000000
		CHANNELS 3 Zrotation Yrotation Xrotation
		JOINT Spine
		{
			OFFSET 0.000000 6.876099 0.125700
			CHANNELS 3 Zrotation Yrotation Xrotation
			JOINT Spine1
			{
				OFFSET 0.000000 8.022060 0.146608
				CHANNELS 3 Zrotation Yrotation Xrotation
				JOINT Spine2
				{
					OFFSET 0.000000 9.168068 0.167552
					CHANNELS 3 Zrotation Yrotation Xrotation
					JOINT Neck_virtual
					{
						OFFSET 0.000000 0.000000 0.000000
						CHANNELS 3 Zrotation Yrotation Xrotation
						JOINT Neck
						{
							OFFSET 0.000000 10.314075 0.188496
							CHANNELS 3 Zrotation Yrotation Xrotation
							JOINT Head
							{
								OFFSET 0.000000 7.643700 -2.377400
								CHANNELS 3 Zrotation Yrotation Xrotation
								End Site
								{
									OFFSET 0.000000 0.000000 0.000000
								}
							}
						}
					}
					JOINT LeftShoulder_virtual
					{
						OFFSET 0.000000 0.000000 0.000000
						CHANNELS 3 Zrotation Yrotation Xrotation
						JOINT LeftShoulder
						{
							OFFSET 4.392200 8.824978 0.174984
							CHANNELS 3 Zrotation Yrotation Xrotation
							JOINT LeftArm
							{
								OFFSET 8.771219 -2.981674 -0.026999
								CHANNELS 3 Zrotation Yrotation Xrotation
								JOINT LeftForeArm
								{
									OFFSET 8.512804 0.000000 -0.000000
									CHANNELS 3 Zrotation Yrotation Xrotation
									JOINT LeftHand
									{
										OFFSET 18.484802 0.000000 -0.000000
										CHANNELS 3 Zrotation Yrotation Xrotation
										End Site
										{
											OFFSET 0.000000 0.000000 0.000000
										}
									}
								}
							}
						}
					}
					JOINT RightShoulder_virtual
					{
						OFFSET 0.000000 0.000000 0.000000
						CHANNELS 3 Zrotation Yrotation Xrotation
						JOINT RightShoulder
						{
							OFFSET -4.392200 8.824993 0.141379
							CHANNELS 3 Zrotation Yrotation Xrotation
							JOINT RightArm
							{
								OFFSET -8.771282 -2.981682 -0.094208
								CHANNELS 3 Zrotation Yrotation Xrotation
								JOINT RightForeArm
								{
									OFFSET -8.494598 0.000000 0.000000
									CHANNELS 3 Zrotation Yrotation Xrotation
									JOINT RightHand
									{
										OFFSET -18.483803 0.000000 0.000001
										CHANNELS 3 Zrotation Yrotation Xrotation
										End Site
										{
											OFFSET 0.000000 0.000000 0.000000
										}
									}
								}
							}
						}
					}
				}
			}
		}
	}
}
MOTION
Frames: 7
Frame Time: 0.033333
-3.696554 36.024223 31.275612 179.876420 3.124364 179.841709 -2.219743 -2.768366 9.025496 -17.128171 1.344552 -17.246257 18.621773 6.080406 20.435902 0.189292 -4.261387 5.605418 0.000000 0.000000 0.000000 1.257375 -0.634318 7.455934 1.227954 -0.579452 -11.842197 -8.162444 -0.863496 17.877064 7.201017 4.203088 8.125681 0.000000 0.000000 0.000000 1.184075 0.619997 -3.285308 -3.917802 2.202016 -7.372249 0.684939 -3.811514 3.800170 0.023962 0.001601 -0.017117 0.471348 -2.330282 6.785200 1.511994 2.061299 16.870576 0.000000 0.000000 0.000000 1.910714 -1.474055 3.521556 -9.741381 3.520735 -6.545613 2.099297 8.941725 -37.827391 -1.447682 -41.886084 -0.831169 0.000000 0.000000 0.000000 -1.493620 -0.738843 3.140946 19.756848 -4.776881 -14.519276 5.265970 -10.772098 -48.986752 -0.548361 29.281277 4.115005 0.000000 0.000000 0.000000 
-3.714667 36.030758 31.360041 179.921308 3.033509 179.757779 -2.050019 -2.777102 8.863842 -16.927082 0.740417 -17.202414 18.621276 5.577908 20.042582 0.059986 -4.407434 5.551068 0.000000 0.000000 0.000000 1.308542 -0.754376 7.444444 1.296616 -0.929727 -11.823763 -7.987294 -1.145667 17.686608 7.116994 4.073737 8.351797 0.000000 0.000000 0.000000 1.234487 0.604121 -3.107822 -3.926250 2.169488 -7.289743 0.663457 -3.816866 3.810917 0.019283 -0.003306 -0.010997 0.459986 -2.303435 6.759770 1.496180 2.054382 16.813793 0.000000 0.000000 0.000000 1.892358 -1.481128 3.512794 -9.791139 3.523701 -6.553018 2.096247 8.863395 -37.815141 -1.395584 -41.729457 -0.871209 0.000000 0.000000 0.000000 -1.489611 -0.797394 3.148868 19.737066 -4.820894 -14.660494 5.252139 -10.819760 -48.981120 -0.402660 29.218504 4.252533 0.000000 0.000000 0.000000 
-3.742501 36.037651 31.446981 179.861202 3.044780 179.783379 -2.087674 -2.768073 8.731163 -17.042509 0.737796 -17.236256 18.695350 5.612059 19.795471 0.133937 -4.418449 5.761610 0.000000 0.000000 0.000000 1.260663 -0.780313 7.382456 1.217931 -0.831272 -11.926825 -8.020898 -1.240742 17.529459 7.177532 4.096617 8.566239 0.000000 0.000000 0.000000 1.238243 0.617452 -3.035952 -3.973356 2.156333 -7.226716 0.640832 -3.814361 3.852947 0.004797 -0.003721 -0.015106 0.480174 -2.331228 6.788822 1.463456 2.042289 16.707215 0.000000 0.000000 0.000000 1.926259 -1.494859 3.533558 -9.762753 3.531630 -6.449222 2.026184 8.848446 -37.849097 -1.364977 -41.598605 -0.946305 0.000000 0.000000 0.000000 -1.462814 -0.788654 3.186190 19.681549 -4.844625 -14.617156 5.222497 -10.856896 -48.890590 -0.451042 29.074930 4.147425 0.000000 0.000000 0.000000 
-3.777061 36.044991 31.520111 179.850834 3.124835 179.822844 -2.065639 -2.734513 8.665768 -17.160611 0.807255 -17.275475 18.655489 5.652145 19.536595 0.216410 -4.452054 5.951333 0.000000 0.000000 0.000000 1.287839 -0.766930 7.357808 1.105633 -0.719974 -12.016961 -8.036731 -1.272653 17.406841 7.218009 4.121622 8.769596 0.000000 0.000000 0.000000 1.280451 0.638315 -2.931993 -4.001266 2.181165 -7.187131 0.640618 -3.811881 3.871923 -0.006810 -0.000464 -0.025061 0.503147 -2.368293 6.882816 1.420446 2.056364 16.613593 0.000000 0.000000 0.000000 1.951793 -1.462813 3.623057 -9.721951 3.551860 -6.538410 1.857413 8.781635 -37.853608 -1.405274 -41.495254 -0.909398 0.000000 0.000000 0.000000 -1.428463 -0.743430 3.274822 19.631109 -4.822449 -14.566184 5.089050 -10.987759 -48.738249 -0.371182 28.952253 4.135007 0.000000 0.000000 0.000000 
-3.813136 36.052883 31.570513 179.901036 3.100304 179.780319 -1.981860 -2.799410 8.703722 -17.259912 0.962504 -17.283179 18.531063 5.563756 19.318946 0.374753 -4.435626 6.192034 0.000000 0.000000 0.000000 1.396747 -0.890095 7.357051 0.935367 -0.595420 -12.125170 -7.970778 -1.161635 17.339099 7.210012 4.121655 8.847943 0.000000 0.000000 0.000000 1.336182 0.580887 -2.786088 -4.024816 2.175612 -7.124310 0.657008 -3.661623 3.894655 0.016923 -0.033628 -0.015172 0.471599 -2.296651 6.904633 1.347335 2.086850 16.530364 0.000000 0.000000 0.000000 1.915644 -1.503180 3.665922 -9.674705 3.521698 -6.524729 1.744094 8.779731 -37.969394 -1.379930 -41.306553 -0.958978 0.000000 0.000000 0.000000 -1.482918 -0.778379 3.279249 19.611695 -4.907636 -14.593353 5.045886 -10.910206 -48.790971 -0.316684 28.821503 4.018152 0.000000 0.000000 0.000000 
-3.851831 36.057541 31.602226 179.921854 3.157681 179.832201 -1.921955 -2.815373 8.732469 -17.400566 1.115315 -17.394806 18.436624 5.512079 19.139349 0.523893 -4.432281 6.369963 0.000000 0.000000 0.000000 1.460567 -0.866468 7.373055 0.757231 -0.382921 -12.181267 -7.915062 -1.131913 17.243600 7.151862 4.030508 8.922490 0.000000 0.000000 0.000000 1.371941 0.593053 -2.714076 -4.056425 2.255101 -7.079573 0.649568 -3.797036 3.895401 0.027077 -0.003493 -0.036192 0.435361 -2.262346 6.956908 1.239454 2.106790 16.415491 0.000000 0.000000 0.000000 1.915506 -1.471498 3.682476 -9.599681 3.555521 -6.402146 1.546636 8.854691 -38.110946 -1.291125 -41.216394 -1.026205 0.000000 0.000000 0.000000 -1.487627 -0.700766 3.330923 19.632634 -4.848900 -14.607095 5.031335 -10.886780 -48.775723 -0.253934 28.768675 3.917849 0.000000 0.000000 0.000000 
-3.891554 36.059418 31.629648 179.871597 3.122556 179.825972 -1.940937 -2.877120 8.786944 -17.565983 1.175809 -17.503188 18.385172 5.495233 19.027623 0.648969 -4.460939 6.589768 0.000000 0.000000 0.000000 1.481139 -0.945379 7.353411 0.573867 -0.235665 -12.273324 -7.936586 -1.140439 17.307916 7.213235 4.038246 8.878712 0.000000 0.000000 0.000000 1.389282 0.564586 -2.623641 -4.105663 2.326692 -7.028114 0.623618 -3.778982 3.911510 -0.005004 0.004965 -0.031204 0.503632 -2.212317 6.936134 1.153007 2.145158 16.312073 0.000000 0.000000 0.000000 1.974848 -1.476213 3.735478 -9.537636 3.557167 -6.590161 1.248446 8.768195 -38.190914 -1.327711 -41.169901 -0.959633 0.000000 0.000000 0.000000 -1.445457 -0.737807 3.317166 19.630669 -4.886153 -14.569082 5.074258 -10.843966 -48.874399 -0.211428 28.856579 3.828222 0.000000 0.000000 0.000000 
